<?xml version="1.0" encoding="UTF-8" standalone="no"?>
<svg
   viewBox="0 0 1920 1080"
   role="img"
   aria-labelledby="title desc"
   version="1.1"
   id="svg11"
   xmlns="http://www.w3.org/2000/svg"
   xmlns:svg="http://www.w3.org/2000/svg">
  <defs
     id="defs11" />
  <title
     id="title">PMT Project Management Tool logo</title>
  <desc
     id="desc">Blue growth bars, PMT initials, Project Management Tool subtitle, by Sin, and a six-color accent strip.</desc>
  <g
     id="growth-mark"
     fill="#2686fe">
    <g
       id="g1">
      <rect
         x="135"
         y="750"
         width="105"
         height="82"
         rx="22"
         id="rect1" />
      <ellipse
         cx="187.5"
         cy="713"
         rx="47"
         ry="29"
         id="ellipse1" />
    </g>
    <g
       id="g2">
      <rect
         x="285"
         y="625"
         width="135"
         height="207"
         rx="30"
         id="rect2" />
      <circle
         cx="352.5"
         cy="568"
         r="46"
         id="circle2" />
    </g>
    <g
       id="g3">
      <rect
         x="470"
         y="485"
         width="142"
         height="347"
         rx="34"
         id="rect3" />
      <circle
         cx="541"
         cy="418"
         r="56"
         id="circle3" />
    </g>
    <g
       fill="#0062fe"
       id="g4">
      <rect
         x="665"
         y="310"
         width="150"
         height="522"
         rx="38"
         id="rect4" />
      <circle
         cx="740"
         cy="225"
         r="67"
         id="circle4" />
    </g>
  </g>
  <g
     id="pmt"
     font-family="Liberation Sans, Arial, sans-serif"
     font-size="305"
     font-weight="700">
    <path
       d="m 1093.0078,441.58447 q 0,20.25391 -9.2334,36.18897 -9.2334,15.93506 -26.5088,24.72168 -17.1264,8.63769 -40.8056,8.63769 H 964.33594 V 585 H 920.40283 V 375.16357 h 94.27007 q 37.6782,0 57.9321,17.42432 20.4028,17.27539 20.4028,48.99658 z m -44.2309,0.74463 q 0,-33.06152 -39.0186,-33.06152 h -45.42236 v 68.05908 h 46.61376 q 18.169,0 27.9981,-8.93555 9.8291,-9.08447 9.8291,-26.06201 z"
       id="text4"
       style="fill:#4285f4"
       aria-label="P" />
    <path
       d="M 1284.646,585 V 457.81738 q 0,-4.31884 0,-8.63769 0.1489,-4.31885 1.4893,-37.08252 -10.5738,40.06103 -15.6373,55.84717 L 1232.6709,585 h -31.2744 l -37.8272,-117.05566 -15.935,-55.84717 q 1.7871,34.55078 1.7871,45.72021 V 585 h -39.0186 V 375.16357 h 58.8257 l 37.5293,117.35352 3.2764,11.31836 7.1484,28.14697 9.3823,-33.65722 38.5718,-123.16163 h 58.5279 V 585 Z"
       id="text5"
       style="fill:#ea4335"
       aria-label="M" />
    <path
       d="M 1495.1196,409.11865 V 585 h -43.9331 V 409.11865 h -67.7612 v -33.95508 h 179.6045 v 33.95508 z"
       id="text6"
       style="fill:#fbbc05"
       aria-label="T" />
  </g>
  <path
     d="m 937.37109,701.14453 q 0,3.19922 -0.8789,6.1875 -0.87891,2.95313 -2.70703,5.23828 -1.82813,2.28516 -4.64063,3.65625 -2.77734,1.33594 -6.60937,1.33594 H 912.44531 V 735 h -8.50781 v -49.53516 h 18.24609 q 3.90235,0 6.75,1.16016 2.84766,1.125 4.71094,3.19922 1.89844,2.07422 2.8125,4.95703 0.91406,2.88281 0.91406,6.36328 z m -8.57812,0.17578 q 0,-3.83203 -1.89844,-5.80078 -1.86328,-2.00391 -5.66016,-2.00391 h -8.78906 v 16.06641 h 9.03516 q 1.89844,0 3.26953,-0.59766 1.37109,-0.59765 2.25,-1.6875 0.91406,-1.08984 1.33594,-2.60156 0.45703,-1.54687 0.45703,-3.375 z M 943.48828,735 v -29.10938 q 0,-1.23046 -0.0352,-2.60156 0,-1.37109 -0.0352,-2.60156 -0.0352,-1.26563 -0.0703,-2.25 -0.0352,-1.01953 -0.0703,-1.47656 h 7.69922 q 0.0703,0.42187 0.10547,1.47656 0.0703,1.01953 0.10547,2.25 l 0.14062,2.46094 q 0.0352,1.19531 0.0352,1.93359 h 0.10547 q 0.59766,-2.07422 1.19531,-3.69141 0.63281,-1.65234 1.44141,-2.77734 0.80859,-1.16016 1.96875,-1.75781 1.16015,-0.63281 2.84765,-0.63281 0.70313,0 1.40625,0.17578 0.73829,0.14062 1.125,0.35156 v 8.26172 q -0.77343,-0.21094 -1.58203,-0.35156 -0.80859,-0.17579 -1.89843,-0.17579 -3.02344,0 -4.71094,2.98829 -1.6875,2.98828 -1.6875,8.85937 V 735 Z m 52.59375,-19.05469 q 0,4.35938 -0.98437,7.98047 -0.98438,3.62109 -2.98829,6.25781 -1.96875,2.60157 -4.95703,4.07813 -2.95312,1.4414 -6.92578,1.4414 -3.79687,0 -6.71484,-1.4414 -2.91797,-1.44141 -4.88672,-4.04297 -1.96875,-2.60156 -2.98828,-6.22266 -0.98438,-3.65625 -0.98438,-8.05078 0,-4.2539 0.94922,-7.83984 0.98438,-3.6211 2.91797,-6.25781 1.96875,-2.63672 4.92188,-4.11329 2.98828,-1.47656 6.96093,-1.47656 4.21875,0 7.17188,1.47656 2.98828,1.47657 4.85156,4.11329 1.89844,2.60156 2.77734,6.22265 0.87891,3.58594 0.87891,7.875 z m -8.47266,0 q 0,-6.78515 -1.82812,-9.84375 -1.79297,-3.05859 -5.23828,-3.05859 -3.58594,0 -5.48438,3.09375 -1.89843,3.09375 -1.89843,9.80859 0,3.41016 0.49218,5.8711 0.49219,2.46093 1.40625,4.04296 0.94922,1.58204 2.25,2.35547 1.30078,0.73828 2.84766,0.73828 1.79297,0 3.16406,-0.73828 1.40625,-0.77343 2.35547,-2.35547 0.94922,-1.58203 1.44141,-4.04296 0.49218,-2.46094 0.49218,-5.8711 z m 14.94143,-25.83984 v -7.27735 h 8.1211 v 7.27735 z m -0.1758,59.83594 q -1.6172,0 -2.8125,-0.10547 -1.19531,-0.0703 -2.07422,-0.21094 v -6.96094 q 0.38672,0.0703 0.77344,0.10547 0.35156,0.0352 0.70312,0.0352 1.12496,0 1.79296,-0.28125 0.7031,-0.28125 1.0899,-0.94922 0.4218,-0.66797 0.5625,-1.75781 0.1406,-1.08985 0.1406,-2.70704 v -40.14843 h 8.1211 V 739.5 q 0,2.28516 -0.4571,4.18359 -0.457,1.89844 -1.4765,3.30469 -0.9844,1.40625 -2.5664,2.17969 -1.5821,0.77344 -3.7969,0.77344 z m 29.3555,-14.23829 q -3.375,0 -6.0821,-1.19531 -2.707,-1.23047 -4.6054,-3.6914 -1.8985,-2.4961 -2.918,-6.22266 -0.9844,-3.76172 -0.9844,-8.78906 0,-5.44922 1.1953,-9.17578 1.1953,-3.72657 3.1993,-6.01172 2.039,-2.32032 4.6757,-3.33985 2.6719,-1.01953 5.625,-1.01953 3.6914,0 6.293,1.58203 2.6016,1.54688 4.2539,4.35938 1.6875,2.8125 2.461,6.75 0.8085,3.90234 0.8085,8.64844 v 0.28125 h -20.0039 q 0,2.39062 0.3164,4.46484 0.3516,2.03906 1.125,3.55078 0.7735,1.47656 2.004,2.35547 1.2656,0.84375 3.0234,0.84375 2.1445,0 3.4805,-1.08984 1.3711,-1.125 1.9336,-3.44532 l 7.6289,0.8086 q -0.5274,1.61718 -1.4766,3.44531 -0.9141,1.82812 -2.4609,3.375 -1.5469,1.51172 -3.8672,2.53125 -2.3203,0.98437 -5.625,0.98437 z m 0,-33.22265 q -1.2305,0 -2.3203,0.52734 -1.0899,0.49219 -1.8985,1.61719 -0.7734,1.08984 -1.2656,2.84766 -0.4922,1.75781 -0.5625,4.21875 h 12.1289 q -0.2461,-4.60547 -1.8281,-6.89063 -1.5821,-2.32031 -4.2539,-2.32031 z m 33.0468,33.22265 q -3.7265,0 -6.5039,-1.40625 -2.7773,-1.40625 -4.6406,-3.97265 -1.8281,-2.56641 -2.7422,-6.15235 -0.914,-3.62109 -0.914,-7.98046 0,-4.7461 0.9843,-8.4375 1.0196,-3.72657 2.918,-6.25782 1.8984,-2.5664 4.6758,-3.90234 2.8125,-1.33594 6.3281,-1.33594 3.0235,0 5.3789,0.98438 2.3555,0.98437 4.043,2.70703 1.7226,1.6875 2.7773,4.00781 1.0547,2.32031 1.4414,4.99219 l -8.1562,0.49219 q -0.3516,-2.91797 -1.7227,-4.64063 -1.3711,-1.75781 -3.9375,-1.75781 -3.2695,0 -4.7461,3.26953 -1.4765,3.26953 -1.4765,9.49219 0,13.14843 6.3633,13.14843 2.3203,0 3.8671,-1.75781 1.5469,-1.79297 1.9336,-5.30859 l 8.1211,0.45703 q -0.2812,2.63672 -1.3359,5.0625 -1.0195,2.39062 -2.7773,4.25391 -1.7227,1.82812 -4.2188,2.95312 -2.4609,1.08984 -5.6602,1.08984 z m 27.8086,-0.0703 q -3.5859,0 -5.5195,-2.35547 -1.8984,-2.39062 -1.8984,-7.20703 v -22.42969 h -3.9727 v -6.67968 h 4.3594 l 2.5312,-8.92969 h 5.0977 v 8.92969 h 5.9062 v 6.67968 h -5.9062 v 19.75782 q 0,2.77734 0.8437,4.11328 0.879,1.30078 2.6719,1.30078 0.7383,0 1.336,-0.14063 0.6328,-0.14062 1.4062,-0.35156 v 6.11719 q -1.5117,0.59766 -3.1992,0.87891 -1.6524,0.3164 -3.6563,0.3164 z M 1154.25,735 v -30.02344 q 0,-1.79297 0.035,-3.6914 0.035,-1.89844 0.1054,-3.48047 0,0 0.1407,-3.6211 0,0 -1.1602,5.27344 0,0 -0.4922,2.17969 l -0.4922,2.17969 -0.457,1.96875 -0.4219,1.58203 L 1144.1953,735 h -6.082 l -7.3125,-27.63281 q -0.1758,-0.66797 -0.3867,-1.58203 l -0.4571,-1.96875 -0.5273,-2.17969 -0.4922,-2.17969 q 0,0 -1.2305,-5.27344 0.07,2.03907 0.1758,4.00782 0.07,1.6875 0.1055,3.55078 0.07,1.86328 0.07,3.23437 V 735 H 1120.5 v -49.53516 h 11.3906 l 7.2774,27.70313 q 0.2812,1.08984 0.5976,2.67187 l 0.668,3.0586 q 0,0 0.7383,3.58593 0,0 0.7734,-3.51562 0,0 0.3516,-1.51172 l 0.3515,-1.51172 q 0.1758,-0.73828 0.3516,-1.40625 l 0.3164,-1.19531 7.1367,-27.87891 h 11.3555 V 735 Z m 22.8164,0.70312 q -2.25,0 -4.043,-0.73828 -1.7578,-0.77343 -2.9882,-2.21484 -1.2305,-1.47656 -1.8985,-3.62109 -0.6679,-2.14454 -0.6679,-4.88672 0,-3.375 0.9492,-5.66016 0.9843,-2.32031 2.6367,-3.72656 1.6875,-1.44141 3.9375,-2.07422 2.25,-0.66797 4.7812,-0.70313 l 6.7149,-0.14062 v -1.93359 q 0,-2.07422 -0.3164,-3.44532 -0.2813,-1.40625 -0.8789,-2.28515 -0.5625,-0.87891 -1.4063,-1.23047 -0.8437,-0.38672 -1.9336,-0.38672 -1.0195,0 -1.8281,0.24609 -0.7734,0.2461 -1.3711,0.87891 -0.5625,0.59766 -0.9141,1.65234 -0.3515,1.01953 -0.4921,2.60157 l -8.4727,-0.49219 q 0.3516,-2.4961 1.2656,-4.53516 0.9492,-2.07422 2.5664,-3.58594 1.6172,-1.51171 4.0078,-2.32031 2.3907,-0.84375 5.5899,-0.84375 2.918,0 5.168,0.87891 2.2851,0.8789 3.8671,2.63672 1.5821,1.72265 2.4258,4.2539 0.8438,2.53125 0.8438,5.8711 V 723.75 q 0,1.33594 0.1054,2.39062 0.1055,1.05469 0.3516,1.79297 0.2813,0.70313 0.7734,1.08985 0.5274,0.35156 1.336,0.35156 0.914,0 1.793,-0.21094 v 5.34375 q 0,0 -1.3008,0.38672 -0.5977,0.17578 -1.1602,0.28125 -0.5625,0.10547 -1.2305,0.17578 -0.6328,0.0703 -1.5117,0.0703 -3.0586,0 -4.5351,-1.82812 -1.4414,-1.82813 -1.7227,-5.37891 h -0.1758 q -1.6172,3.55078 -4.1484,5.51953 -2.5313,1.96875 -6.1172,1.96875 z m 9.4219,-18.3164 -4.1485,0.0703 q -1.3007,0.0703 -2.4609,0.28125 -1.1601,0.17578 -2.0391,0.80859 -0.8789,0.59766 -1.4062,1.75782 -0.5273,1.16015 -0.5273,3.16406 0,2.70703 1.0195,4.04297 1.0547,1.30078 2.7422,1.30078 1.5468,0 2.8125,-0.80859 1.3008,-0.8086 2.1797,-2.10938 0.8789,-1.33594 1.3359,-3.05859 0.4922,-1.72266 0.4922,-3.51563 z M 1222.9102,735 v -21.33984 q 0,-2.21485 -0.2813,-4.04297 -0.2812,-1.86328 -0.9492,-3.16407 -0.668,-1.33593 -1.7578,-2.07421 -1.0547,-0.73829 -2.5664,-0.73829 -1.4766,0 -2.6719,0.8086 -1.1953,0.77344 -2.0742,2.25 -0.8438,1.4414 -1.336,3.48047 -0.457,2.0039 -0.457,4.42968 V 735 h -8.1211 v -29.53125 q 0,-1.23047 -0.035,-2.53125 0,-1.30078 -0.035,-2.46094 -0.035,-1.19531 -0.07,-2.10937 -0.035,-0.94922 -0.07,-1.40625 h 7.7344 q 0.07,0.42187 0.1054,1.37109 0.035,0.91406 0.1055,2.03906 0.07,1.125 0.1055,2.25 0.035,1.125 0.035,1.89844 h 0.1055 q 1.6523,-4.35937 4.1133,-6.32812 2.4961,-1.96875 5.9414,-1.96875 2.8125,0 4.7461,1.125 1.9687,1.125 3.1992,3.09375 1.2305,1.96875 1.7578,4.64062 0.5625,2.67188 0.5625,5.76563 V 735 Z m 23.0625,0.70312 q -2.25,0 -4.043,-0.73828 -1.7578,-0.77343 -2.9883,-2.21484 -1.2305,-1.47656 -1.8984,-3.62109 -0.668,-2.14454 -0.668,-4.88672 0,-3.375 0.9492,-5.66016 0.9844,-2.32031 2.6367,-3.72656 1.6875,-1.44141 3.9375,-2.07422 2.25,-0.66797 4.7813,-0.70313 l 6.7148,-0.14062 v -1.93359 q 0,-2.07422 -0.3164,-3.44532 -0.2812,-1.40625 -0.8789,-2.28515 -0.5625,-0.87891 -1.4062,-1.23047 -0.8438,-0.38672 -1.9336,-0.38672 -1.0196,0 -1.8281,0.24609 -0.7735,0.2461 -1.3711,0.87891 -0.5625,0.59766 -0.9141,1.65234 -0.3516,1.01953 -0.4922,2.60157 l -8.4726,-0.49219 q 0.3515,-2.4961 1.2656,-4.53516 0.9492,-2.07422 2.5664,-3.58594 1.6172,-1.51171 4.0078,-2.32031 2.3906,-0.84375 5.5898,-0.84375 2.918,0 5.168,0.87891 2.2852,0.8789 3.8672,2.63672 1.582,1.72265 2.4258,4.2539 0.8437,2.53125 0.8437,5.8711 V 723.75 q 0,1.33594 0.1055,2.39062 0.1055,1.05469 0.3516,1.79297 0.2812,0.70313 0.7734,1.08985 0.5273,0.35156 1.3359,0.35156 0.9141,0 1.793,-0.21094 v 5.34375 q 0,0 -1.3008,0.38672 -0.5976,0.17578 -1.1601,0.28125 -0.5625,0.10547 -1.2305,0.17578 -0.6328,0.0703 -1.5117,0.0703 -3.0586,0 -4.5352,-1.82812 -1.4414,-1.82813 -1.7226,-5.37891 h -0.1758 q -1.6172,3.55078 -4.1485,5.51953 -2.5312,1.96875 -6.1171,1.96875 z m 9.4218,-18.3164 -4.1484,0.0703 q -1.3008,0.0703 -2.4609,0.28125 -1.1602,0.17578 -2.0391,0.80859 -0.8789,0.59766 -1.4063,1.75782 -0.5273,1.16015 -0.5273,3.16406 0,2.70703 1.0195,4.04297 1.0547,1.30078 2.7422,1.30078 1.5469,0 2.8125,-0.80859 1.3008,-0.8086 2.1797,-2.10938 0.8789,-1.33594 1.3359,-3.05859 0.4922,-1.72266 0.4922,-3.51563 z m 29.2852,32.87109 q -3.0938,0 -5.4492,-0.77344 -2.3555,-0.73828 -4.0078,-2.10937 -1.6524,-1.33594 -2.6719,-3.23438 -0.9844,-1.86328 -1.336,-4.11328 l 8.086,-1.16015 q 0.4219,2.28515 1.8633,3.58593 1.4414,1.30079 3.7265,1.30079 1.4414,0 2.6367,-0.49219 1.1954,-0.49219 2.0391,-1.6875 0.8789,-1.16016 1.3359,-3.09375 0.4922,-1.9336 0.4922,-4.78125 0,0 0,-2.00391 0,-1.01953 0.035,-1.86328 0.035,-0.98437 0.035,-1.89844 h -0.07 q -1.4062,3.69141 -3.9726,5.34375 -2.5313,1.65235 -6.0821,1.65235 -2.9531,0 -5.0976,-1.40625 -2.1445,-1.44141 -3.5859,-3.97266 -1.4063,-2.56641 -2.0743,-6.08203 -0.6679,-3.55078 -0.6679,-7.80469 0,-4.39453 0.7031,-7.94531 0.7383,-3.58594 2.2148,-6.15234 1.4766,-2.56641 3.7266,-3.9375 2.2852,-1.40625 5.4141,-1.40625 3.1289,0 5.5898,1.61718 2.4609,1.61719 3.832,5.23828 h 0.1407 q 0,-0.73828 0.035,-1.6875 0.035,-0.98437 0.1055,-1.86328 0.07,-0.91406 0.1406,-1.61718 0.07,-0.70313 0.1055,-0.94922 h 7.6992 q -0.07,1.26562 -0.1406,3.55078 -0.035,2.28515 -0.035,5.23828 v 28.08984 q 0,4.14844 -0.9844,7.20703 -0.9843,3.09375 -2.8828,5.13282 -1.8633,2.03906 -4.6406,3.05859 -2.7422,1.01953 -6.2578,1.01953 z m 6.7851,-34.80469 q 0,-3.58593 -0.5976,-5.97656 -0.5625,-2.39062 -1.5117,-3.83203 -0.9141,-1.44141 -2.1094,-2.03906 -1.1953,-0.59766 -2.3906,-0.59766 -1.5469,0 -2.7774,0.73828 -1.1953,0.73828 -2.039,2.28516 -0.8086,1.54687 -1.2657,3.9375 -0.4218,2.39062 -0.4218,5.69531 0,6.15235 1.6172,9.28125 1.6171,3.12891 4.8164,3.12891 1.1953,0 2.3906,-0.5625 1.2305,-0.59766 2.1797,-2.03906 0.9492,-1.47657 1.5117,-3.90235 0.5976,-2.42578 0.5976,-6.11719 z m 29.004,20.25 q -3.375,0 -6.0821,-1.19531 -2.707,-1.23047 -4.6054,-3.6914 -1.8985,-2.4961 -2.918,-6.22266 -0.9844,-3.76172 -0.9844,-8.78906 0,-5.44922 1.1953,-9.17578 1.1953,-3.72657 3.1992,-6.01172 2.0391,-2.32032 4.6758,-3.33985 2.6719,-1.01953 5.625,-1.01953 3.6914,0 6.293,1.58203 2.6016,1.54688 4.2539,4.35938 1.6875,2.8125 2.4609,6.75 0.8086,3.90234 0.8086,8.64844 v 0.28125 h -20.0039 q 0,2.39062 0.3164,4.46484 0.3516,2.03906 1.125,3.55078 0.7735,1.47656 2.0039,2.35547 1.2657,0.84375 3.0235,0.84375 2.1445,0 3.4804,-1.08984 1.3711,-1.125 1.9336,-3.44532 l 7.6289,0.8086 q -0.5273,1.61718 -1.4765,3.44531 -0.9141,1.82812 -2.461,3.375 -1.5468,1.51172 -3.8671,2.53125 -2.3204,0.98437 -5.625,0.98437 z m 0,-33.22265 q -1.2305,0 -2.3204,0.52734 -1.0898,0.49219 -1.8984,1.61719 -0.7734,1.08984 -1.2656,2.84766 -0.4922,1.75781 -0.5625,4.21875 h 12.1289 q -0.2461,-4.60547 -1.8281,-6.89063 -1.5821,-2.32031 -4.2539,-2.32031 z M 1358.8945,735 v -21.33984 q 0,-2.21485 -0.2461,-4.04297 -0.2461,-1.86328 -0.8086,-3.16407 -0.5625,-1.33593 -1.4765,-2.07421 -0.9141,-0.73829 -2.2149,-0.73829 -1.2304,0 -2.25,0.8086 -1.0195,0.77344 -1.7578,2.25 -0.7031,1.4414 -1.125,3.48047 -0.3867,2.0039 -0.3867,4.42968 V 735 h -8.1211 v -29.53125 q 0,-1.23047 -0.035,-2.53125 0,-1.30078 -0.035,-2.46094 -0.035,-1.19531 -0.07,-2.10937 -0.035,-0.94922 -0.07,-1.40625 h 7.6992 q 0.07,0.42187 0.1055,1.37109 0.07,0.91406 0.1406,2.03906 0.07,1.125 0.1055,2.25 0.035,1.125 0.035,1.89844 h 0.1055 q 1.5117,-4.35937 3.7265,-6.32812 2.25,-1.96875 5.379,-1.96875 3.5859,0 5.7304,2.14453 2.1797,2.10937 2.918,6.15234 h 0.1758 q 0.8437,-2.35547 1.7929,-3.9375 0.9844,-1.58203 2.1446,-2.53125 1.1601,-0.98437 2.5312,-1.40625 1.3711,-0.42187 2.9883,-0.42187 2.5664,0 4.3242,1.125 1.793,1.125 2.8828,3.09375 1.125,1.96875 1.6172,4.64062 0.5274,2.67188 0.5274,5.76563 V 735 h -8.0508 v -21.33984 q 0,-2.21485 -0.2461,-4.04297 -0.2461,-1.86328 -0.8086,-3.16407 -0.5625,-1.33593 -1.4766,-2.07421 -0.8789,-0.73829 -2.1797,-0.73829 -1.1953,0 -2.2148,0.77344 -0.9844,0.73828 -1.7227,2.14453 -0.7382,1.3711 -1.1601,3.30469 -0.3867,1.93359 -0.457,4.28906 V 735 Z m 46.8985,0.70312 q -3.375,0 -6.0821,-1.19531 -2.707,-1.23047 -4.6054,-3.6914 -1.8985,-2.4961 -2.918,-6.22266 -0.9844,-3.76172 -0.9844,-8.78906 0,-5.44922 1.1953,-9.17578 1.1954,-3.72657 3.1993,-6.01172 2.039,-2.32032 4.6757,-3.33985 2.6719,-1.01953 5.625,-1.01953 3.6914,0 6.293,1.58203 2.6016,1.54688 4.2539,4.35938 1.6875,2.8125 2.461,6.75 0.8085,3.90234 0.8085,8.64844 v 0.28125 h -20.0039 q 0,2.39062 0.3164,4.46484 0.3516,2.03906 1.125,3.55078 0.7735,1.47656 2.004,2.35547 1.2656,0.84375 3.0234,0.84375 2.1445,0 3.4805,-1.08984 1.3711,-1.125 1.9336,-3.44532 l 7.6289,0.8086 q -0.5274,1.61718 -1.4766,3.44531 -0.9141,1.82812 -2.4609,3.375 -1.5469,1.51172 -3.8672,2.53125 -2.3203,0.98437 -5.625,0.98437 z m 0,-33.22265 q -1.2305,0 -2.3203,0.52734 -1.0899,0.49219 -1.8985,1.61719 -0.7734,1.08984 -1.2656,2.84766 -0.4922,1.75781 -0.5625,4.21875 h 12.1289 q -0.2461,-4.60547 -1.8281,-6.89063 -1.5821,-2.32031 -4.2539,-2.32031 z M 1446.0469,735 v -21.33984 q 0,-2.21485 -0.2813,-4.04297 -0.2812,-1.86328 -0.9492,-3.16407 -0.668,-1.33593 -1.7578,-2.07421 -1.0547,-0.73829 -2.5664,-0.73829 -1.4766,0 -2.6719,0.8086 -1.1953,0.77344 -2.0742,2.25 -0.8438,1.4414 -1.3359,3.48047 -0.4571,2.0039 -0.4571,4.42968 V 735 h -8.1211 v -29.53125 q 0,-1.23047 -0.035,-2.53125 0,-1.30078 -0.035,-2.46094 -0.035,-1.19531 -0.07,-2.10937 -0.035,-0.94922 -0.07,-1.40625 h 7.7344 q 0.07,0.42187 0.1054,1.37109 0.035,0.91406 0.1055,2.03906 0.07,1.125 0.1055,2.25 0.035,1.125 0.035,1.89844 h 0.1055 q 1.6523,-4.35937 4.1133,-6.32812 2.4961,-1.96875 5.9414,-1.96875 2.8125,0 4.7461,1.125 1.9687,1.125 3.1992,3.09375 1.2305,1.96875 1.7578,4.64062 0.5625,2.67188 0.5625,5.76563 V 735 Z m 23.8359,0.63281 q -3.5859,0 -5.5195,-2.35547 -1.8985,-2.39062 -1.8985,-7.20703 v -22.42969 h -3.9726 v -6.67968 h 4.3594 l 2.5312,-8.92969 h 5.0977 v 8.92969 h 5.9062 v 6.67968 h -5.9062 v 19.75782 q 0,2.77734 0.8437,4.11328 0.8789,1.30078 2.6719,1.30078 0.7383,0 1.3359,-0.14063 0.6328,-0.14062 1.4063,-0.35156 v 6.11719 q -1.5117,0.59766 -3.1992,0.87891 -1.6524,0.3164 -3.6563,0.3164 z m 46.2656,-42.15234 V 735 h -8.5078 v -41.51953 h -13.1133 v -8.01563 h 34.7696 v 8.01563 z m 43.2071,22.46484 q 0,4.35938 -0.9844,7.98047 -0.9844,3.62109 -2.9883,6.25781 -1.9687,2.60157 -4.957,4.07813 -2.9531,1.4414 -6.9258,1.4414 -3.7969,0 -6.7148,-1.4414 -2.918,-1.44141 -4.8868,-4.04297 -1.9687,-2.60156 -2.9882,-6.22266 -0.9844,-3.65625 -0.9844,-8.05078 0,-4.2539 0.9492,-7.83984 0.9844,-3.6211 2.918,-6.25781 1.9687,-2.63672 4.9218,-4.11329 2.9883,-1.47656 6.961,-1.47656 4.2187,0 7.1719,1.47656 2.9882,1.47657 4.8515,4.11329 1.8985,2.60156 2.7774,6.22265 0.8789,3.58594 0.8789,7.875 z m -8.4727,0 q 0,-6.78515 -1.8281,-9.84375 -1.793,-3.05859 -5.2383,-3.05859 -3.5859,0 -5.4844,3.09375 -1.8984,3.09375 -1.8984,9.80859 0,3.41016 0.4922,5.8711 0.4922,2.46093 1.4062,4.04296 0.9493,1.58204 2.25,2.35547 1.3008,0.73828 2.8477,0.73828 1.793,0 3.1641,-0.73828 1.4062,-0.77343 2.3554,-2.35547 0.9492,-1.58203 1.4414,-4.04296 0.4922,-2.46094 0.4922,-5.8711 z m 44.543,0 q 0,4.35938 -0.9844,7.98047 -0.9844,3.62109 -2.9883,6.25781 -1.9687,2.60157 -4.957,4.07813 -2.9531,1.4414 -6.9258,1.4414 -3.7969,0 -6.7148,-1.4414 -2.918,-1.44141 -4.8867,-4.04297 -1.9688,-2.60156 -2.9883,-6.22266 -0.9844,-3.65625 -0.9844,-8.05078 0,-4.2539 0.9492,-7.83984 0.9844,-3.6211 2.918,-6.25781 1.9687,-2.63672 4.9219,-4.11329 2.9882,-1.47656 6.9609,-1.47656 4.2187,0 7.1719,1.47656 2.9883,1.47657 4.8515,4.11329 1.8985,2.60156 2.7774,6.22265 0.8789,3.58594 0.8789,7.875 z m -8.4727,0 q 0,-6.78515 -1.8281,-9.84375 -1.793,-3.05859 -5.2383,-3.05859 -3.5859,0 -5.4844,3.09375 -1.8984,3.09375 -1.8984,9.80859 0,3.41016 0.4922,5.8711 0.4922,2.46093 1.4062,4.04296 0.9493,1.58204 2.25,2.35547 1.3008,0.73828 2.8477,0.73828 1.793,0 3.1641,-0.73828 1.4062,-0.77343 2.3554,-2.35547 0.9493,-1.58203 1.4414,-4.04296 0.4922,-2.46094 0.4922,-5.8711 z M 1601.8594,735 v -52.17188 h 8.1211 V 735 Z"
     id="subtitle"
     style="font-weight:700;font-size:72px;font-family:'Liberation Sans Narrow', 'Arial Narrow', Arial, sans-serif;letter-spacing:0;fill:#4d4d4d"
     aria-label="Project Management Tool" />
  <path
     d="m 918.39648,777.53516 q 0,7.73828 -5.4414,7.73828 -1.68164,0 -2.80274,-0.60157 -1.10742,-0.61523 -1.80468,-1.96875 h -0.0274 q 0,0.42383 -0.0547,1.29883 -0.0547,0.86133 -0.082,0.99805 h -2.3789 q 0.082,-0.73828 0.082,-3.04883 v -17.24023 h 2.46094 v 5.7832 q 0,0.88867 -0.0547,2.0918 h 0.0547 q 0.68359,-1.42188 1.80468,-2.03711 1.13477,-0.61524 2.80274,-0.61524 2.80273,0 4.11523,1.88672 1.32617,1.88672 1.32617,5.71485 z m -2.58398,0.082 q 0,-3.10352 -0.82031,-4.44336 -0.82032,-1.33985 -2.66602,-1.33985 -2.07812,0 -3.03515,1.42188 -0.94336,1.42187 -0.94336,4.51172 0,2.91211 0.92968,4.30664 0.92969,1.38086 3.02149,1.38086 1.85937,0 2.67969,-1.36719 0.83398,-1.38086 0.83398,-4.4707 z m 6.37109,13.19336 q -1.01172,0 -1.69531,-0.15039 v -1.84571 q 0.51953,0.082 1.14844,0.082 2.29687,0 3.63672,-3.37695 l 0.23242,-0.58789 -5.86524,-14.72461 h 2.625 l 3.11719,8.17578 q 0.0684,0.19141 0.16406,0.46485 0.0957,0.25976 0.61524,1.77734 0.51953,1.51758 0.56055,1.69531 l 0.95703,-2.69336 3.24023,-9.41992 h 2.59766 L 927.83008,785 q -0.91602,2.36523 -1.70899,3.51367 -0.79297,1.16211 -1.76367,1.72266 -0.95703,0.57422 -2.17383,0.57422 z m 36.5586,-11.12891 q 0,2.66602 -2.0918,4.12891 -2.07812,1.46289 -5.86523,1.46289 -7.04102,0 -8.16211,-4.89453 l 2.52929,-0.50586 q 0.4375,1.73632 1.85938,2.55664 1.42187,0.80664 3.86914,0.80664 2.5293,0 3.89648,-0.86133 1.38086,-0.875 1.38086,-2.55664 0,-0.94336 -0.4375,-1.53125 -0.42383,-0.58789 -1.20312,-0.9707 -0.7793,-0.38282 -1.85938,-0.64258 -1.08008,-0.25977 -2.39258,-0.56055 -2.2832,-0.50586 -3.47265,-1.01172 -1.17578,-0.50586 -1.85938,-1.12109 -0.68359,-0.62891 -1.05273,-1.46289 -0.35547,-0.83399 -0.35547,-1.91406 0,-2.47461 1.88672,-3.81446 1.90039,-1.33984 5.42773,-1.33984 3.28125,0 5.01758,1.01172 1.73633,0.99804 2.4336,3.41797 l -2.57032,0.45117 q -0.42383,-1.53125 -1.61328,-2.21485 -1.18945,-0.69726 -3.29492,-0.69726 -2.31055,0 -3.52734,0.76562 -1.2168,0.76563 -1.2168,2.28321 0,0.88867 0.46484,1.47656 0.47852,0.57422 1.36719,0.98437 0.88867,0.39649 3.54102,0.98438 0.88867,0.20508 1.76367,0.42383 0.88867,0.20508 1.69531,0.50586 0.80664,0.28711 1.50391,0.68359 0.71093,0.39648 1.23047,0.9707 0.51953,0.57422 0.80664,1.35352 0.30078,0.7793 0.30078,1.83203 z m 3.1582,-12.61914 v -2.35156 h 2.46094 v 2.35156 z m 0,17.9375 v -14.79297 h 2.46094 V 785 Z m 15.62695,0 v -9.37891 q 0,-1.46289 -0.28711,-2.26953 -0.28711,-0.80664 -0.91601,-1.16211 -0.62891,-0.35547 -1.8457,-0.35547 -1.77735,0 -2.80274,1.2168 -1.02539,1.2168 -1.02539,3.37695 V 785 h -2.46094 v -11.63477 q 0,-2.58398 -0.082,-3.1582 h 2.32422 q 0.0137,0.0684 0.0273,0.36914 0.0137,0.30078 0.0273,0.69727 0.0273,0.38281 0.0547,1.46289 h 0.041 q 0.84766,-1.53125 1.95508,-2.16016 1.12109,-0.64258 2.77539,-0.64258 2.43359,0 3.55469,1.2168 1.13476,1.20313 1.13476,3.99219 V 785 Z"
     id="signature"
     style="font-size:28px;font-family:'Liberation Sans', Arial, sans-serif;fill:#737373"
     aria-label="by Sin" />
  <g
     id="accent-strip">
    <rect
       x="900"
       y="835"
       width="110"
       height="30"
       rx="7"
       fill="#e40303"
       id="rect6" />
    <rect
       x="1040"
       y="835"
       width="110"
       height="30"
       rx="7"
       fill="#ff8c00"
       id="rect7" />
    <rect
       x="1180"
       y="835"
       width="110"
       height="30"
       rx="7"
       fill="#ffed00"
       id="rect8" />
    <rect
       x="1320"
       y="835"
       width="110"
       height="30"
       rx="7"
       fill="#008026"
       id="rect9" />
    <rect
       x="1460"
       y="835"
       width="110"
       height="30"
       rx="7"
       fill="#004dff"
       id="rect10" />
    <rect
       x="1600"
       y="835"
       width="110"
       height="30"
       rx="7"
       fill="#750787"
       id="rect11" />
  </g>
</svg>
