<?xml version="1.0" encoding="UTF-8" standalone="no"?>
<!DOCTYPE svg PUBLIC "-//W3C//DTD SVG 1.1//EN" "http://www.w3.org/Graphics/SVG/1.1/DTD/svg11.dtd">
<svg width="100%" height="100%" viewBox="0 0 1920 1080" version="1.1" xmlns="http://www.w3.org/2000/svg" xmlns:xlink="http://www.w3.org/1999/xlink" xml:space="preserve" xmlns:serif="http://www.serif.com/" style="fill-rule:evenodd;clip-rule:evenodd;stroke-linecap:round;stroke-linejoin:round;stroke-miterlimit:1.5;">
    <g transform="matrix(0.99743,0,0,0.989581,3.41626,5.57306)">
        <rect x="84" y="55" width="1245.46" height="479.883" style="fill:rgb(0,255,237);"/>
    </g>
    <g transform="matrix(0.99743,0,0,0.989581,3.41626,482.456)">
        <rect x="84" y="55" width="1245.46" height="479.883" style="fill:rgb(255,0,238);"/>
    </g>
    <g transform="matrix(3.01518,0,0,5.31713,-464.578,-2875.05)">
        <rect x="183" y="552" width="413" height="179" style="fill:none;stroke:black;stroke-width:0.23px;"/>
    </g>
    <g transform="matrix(0.357734,0,0,5.30595,1263.99,-2868.89)">
        <rect x="183" y="552" width="413" height="179" style="fill:rgb(249,0,32);stroke:black;stroke-width:0.27px;"/>
    </g>
    <g transform="matrix(3.01518,0,0,3.01518,72.1245,-1326.87)">
        <rect x="424" y="469" width="35" height="35" style="fill:rgb(0,51,249);"/>
    </g>
    <g transform="matrix(3.01518,0,0,3.01518,72.1245,-533.255)">
        <rect x="424" y="469" width="35" height="35" style="fill:rgb(0,51,249);"/>
    </g>
    <g transform="matrix(3.01518,0,0,3.01518,72.1245,-1195.58)">
        <rect x="424" y="469" width="35" height="35" style="fill:rgb(0,51,249);"/>
    </g>
    <g transform="matrix(3.01518,0,0,3.01518,72.1245,-930.375)">
        <rect x="424" y="469" width="35" height="35" style="fill:rgb(0,51,249);"/>
    </g>
    <g transform="matrix(3.01518,0,0,3.01518,-368.402,-537.007)">
        <g transform="matrix(17.4715,0,0,17.4715,385.044,264.515)">
        </g>
        <text x="232.544px" y="264.515px" style="font-family:'ArialMT', 'Arial', sans-serif;font-size:17.472px;">1/1/2021 to Present</text>
    </g>
    <g transform="matrix(0.379636,0,0,0.825386,71.1525,-336.772)">
        <rect x="183" y="552" width="413" height="179" style="fill:rgb(0,186,249);"/>
    </g>
    <g transform="matrix(2.15519,0,0,2.15519,-54.5456,-422.419)">
        <g transform="matrix(30.7787,0,0,30.7787,620.22,283)">
        </g>
        <text x="180px" y="283px" style="font-family:'ArialMT', 'Arial', sans-serif;font-size:30.779px;">PMT<tspan x="244.413px 252.964px " y="283px 283px "> -</tspan> Project Management <tspan x="563.757px 579.147px 596.264px " y="283px 283px 283px ">Too</tspan>l</text>
    </g>
    <g transform="matrix(3.01518,0,0,3.01518,-413.924,-699.826)">
        <circle cx="205.5" cy="378.5" r="19.5" style="fill:rgb(249,224,0);stroke:black;stroke-width:0.33px;"/>
    </g>
    <g transform="matrix(3.01518,0,0,3.01518,-326.364,-699.826)">
        <circle cx="205.5" cy="378.5" r="19.5" style="fill:rgb(249,224,0);stroke:black;stroke-width:0.33px;"/>
    </g>
    <g transform="matrix(3.01518,0,0,3.01518,-253.977,-699.826)">
        <circle cx="205.5" cy="378.5" r="19.5" style="fill:rgb(249,224,0);stroke:black;stroke-width:0.33px;"/>
    </g>
    <g transform="matrix(3.01518,0,0,3.01518,-362.666,-522.976)">
        <path d="M165,352L552,352" style="fill:none;stroke:black;stroke-width:0.33px;"/>
    </g>
    <g transform="matrix(2.19388,0,0,2.19388,614.776,-511.83)">
        <text x="344.006px" y="291px" style="font-family:'ArialMT', 'Arial', sans-serif;font-size:9.074px;fill:white;">Expand/</text>
        <text x="343px" y="300.371px" style="font-family:'ArialMT', 'Arial', sans-serif;font-size:9.074px;fill:white;">Collapse</text>
        <g transform="matrix(9.0743,0,0,9.0743,369.23,309.742)">
        </g>
        <text x="352.079px" y="309.742px" style="font-family:'ArialMT', 'Arial', sans-serif;font-size:9.074px;fill:white;">Icon</text>
    </g>
    <g transform="matrix(2.19388,0,0,2.19388,635.724,292.783)">
        <text x="343.758px" y="291px" style="font-family:'ArialMT', 'Arial', sans-serif;font-size:9.074px;fill:white;">Edit</text>
        <g transform="matrix(9.0743,0,0,9.0743,360.152,300.371)">
        </g>
        <text x="343px" y="300.371px" style="font-family:'ArialMT', 'Arial', sans-serif;font-size:9.074px;fill:white;">Icon</text>
    </g>
    <g transform="matrix(2.19388,0,0,2.19388,628.789,-370.255)">
        <text x="343px" y="291px" style="font-family:'ArialMT', 'Arial', sans-serif;font-size:9.074px;fill:white;">Gantt</text>
        <g transform="matrix(9.0743,0,0,9.0743,362.673,300.371)">
        </g>
        <text x="345.521px" y="300.371px" style="font-family:'ArialMT', 'Arial', sans-serif;font-size:9.074px;fill:white;">Icon</text>
    </g>
    <g transform="matrix(3.01518,0,0,3.01518,72.1245,-1061.85)">
        <rect x="424" y="469" width="35" height="35" style="fill:rgb(0,51,249);"/>
    </g>
    <g transform="matrix(2.19388,0,0,2.19388,628.789,-246.927)">
        <text x="338.454px" y="291px" style="font-family:'ArialMT', 'Arial', sans-serif;font-size:9.074px;fill:white;">Kanban</text>
        <text x="341.99px" y="300.371px" style="font-family:'ArialMT', 'Arial', sans-serif;font-size:9.074px;fill:white;">Board</text>
        <g transform="matrix(9.0743,0,0,9.0743,362.673,309.742)">
        </g>
        <text x="345.521px" y="309.742px" style="font-family:'ArialMT', 'Arial', sans-serif;font-size:9.074px;fill:white;">Icon</text>
    </g>
    <g transform="matrix(4.0268,0,0,1.20706,-1970.65,-43.8111)">
        <rect x="523" y="540" width="289" height="32.261" style="fill:rgb(230,230,230);"/>
    </g>
    <g transform="matrix(2.02734,0,0,4.55478,-362.925,-2092.17)">
        <rect x="523" y="540" width="289" height="32.261" style="fill:rgb(0,207,255);"/>
    </g>
    <g transform="matrix(4.0268,0,0,1.20706,-1970.65,49.5427)">
        <rect x="523" y="540" width="289" height="32.261" style="fill:rgb(230,230,230);"/>
    </g>
    <g transform="matrix(4.0268,0,0,1.20706,-1970.65,160.543)">
        <rect x="523" y="540" width="289" height="32.261" style="fill:rgb(230,230,230);"/>
    </g>
    <g transform="matrix(2.19388,0,0,2.19388,624.463,-94.8976)">
        <g transform="matrix(9.0743,0,0,9.0743,366.705,291)">
        </g>
        <text x="343px" y="291px" style="font-family:'ArialMT', 'Arial', sans-serif;font-size:9.074px;fill:white;">Sprint</text>
    </g>
    <g transform="matrix(1.54929,0,0,3.01518,-120.794,-230.478)">
        <path d="M552,281.9L552,287.1C552,289.252 548.599,291 544.41,291L165,291L165,278L544.41,278C548.599,278 552,279.748 552,281.9Z" style="fill:rgb(240,249,0);"/>
    </g>
    <g transform="matrix(3.01518,0,0,3.01518,-362.666,-240.478)">
        <g transform="matrix(9.0743,0,0,9.0743,361.162,291)">
        </g>
        <text x="343px" y="291px" style="font-family:'ArialMT', 'Arial', sans-serif;font-size:9.074px;">50%</text>
    </g>
    <g transform="matrix(3.01518,0,0,3.01518,-396.475,-530.976)">
        <g transform="matrix(9.0743,0,0,9.0743,220.902,372.5)">
        </g>
        <text x="176px" y="372.5px" style="font-family:'ArialMT', 'Arial', sans-serif;font-size:9.074px;">T<tspan x="180.537px 185.584px " y="372.5px 372.5px ">od</tspan>o:  5/10</text>
    </g>
    <g transform="matrix(2.464,0,0,3.01518,-271.72,-136.867)">
        <path d="M552,281.9L552,287.1C552,289.252 549.862,291 547.228,291L165,291L165,278L547.228,278C549.862,278 552,279.748 552,281.9Z" style="fill:rgb(0,249,60);"/>
    </g>
    <g transform="matrix(3.01518,0,0,3.01518,-362.666,-146.867)">
        <g transform="matrix(9.0743,0,0,9.0743,361.162,291)">
        </g>
        <text x="343px" y="291px" style="font-family:'ArialMT', 'Arial', sans-serif;font-size:9.074px;">80%</text>
    </g>
    <g transform="matrix(3.01518,0,0,3.01518,-396.475,-437.365)">
        <g transform="matrix(9.0743,0,0,9.0743,247.624,372.5)">
        </g>
        <text x="176px" y="372.5px" style="font-family:'ArialMT', 'Arial', sans-serif;font-size:9.074px;">In Progress:  8/10</text>
    </g>
    <g transform="matrix(4.0268,0,0,1.20706,-1970.65,272.543)">
        <rect x="523" y="540" width="289" height="32.261" style="fill:rgb(230,230,230);"/>
    </g>
    <g transform="matrix(2.464,0,0,3.01518,-271.72,86.1325)">
        <path d="M552,281.9L552,287.1C552,289.252 549.862,291 547.228,291L165,291L165,278L547.228,278C549.862,278 552,279.748 552,281.9Z" style="fill:rgb(0,249,60);"/>
    </g>
    <g transform="matrix(3.01518,0,0,3.01518,-362.666,76.1328)">
        <g transform="matrix(9.0743,0,0,9.0743,361.162,291)">
        </g>
        <text x="343px" y="291px" style="font-family:'ArialMT', 'Arial', sans-serif;font-size:9.074px;">80%</text>
    </g>
    <g transform="matrix(4.0268,0,0,1.20706,-1970.65,-356.457)">
        <rect x="523" y="540" width="289" height="32.261" style="fill:rgb(230,230,230);"/>
    </g>
    <g transform="matrix(2.818,0,0,3.01518,-330.131,-542.867)">
        <path d="M552,281.9L552,287.1C552,289.252 550.13,291 547.827,291L165,291L165,278L547.827,278C550.13,278 552,279.748 552,281.9Z" style="fill:rgb(0,249,60);"/>
    </g>
    <g transform="matrix(3.01518,0,0,3.01518,-362.666,-552.867)">
        <g transform="matrix(9.0743,0,0,9.0743,361.162,291)">
        </g>
        <text x="343px" y="291px" style="font-family:'ArialMT', 'Arial', sans-serif;font-size:9.074px;">90%</text>
    </g>
    <g transform="matrix(3.01518,0,0,3.01518,-396.475,-214.365)">
        <g transform="matrix(9.0743,0,0,9.0743,271.342,372.5)">
        </g>
        <text x="176px" y="372.5px" style="font-family:'ArialMT', 'Arial', sans-serif;font-size:9.074px;">Deployed to Prod:  8/10</text>
    </g>
    <g transform="matrix(0.735313,0,0,3.01518,13.5124,-26.8675)">
        <path d="M552,281.9L552,287.1C552,289.252 544.834,291 536.008,291L165,291L165,278L536.008,278C544.834,278 552,279.748 552,281.9Z" style="fill:rgb(0,249,60);"/>
    </g>
    <g transform="matrix(3.01518,0,0,3.01518,-362.666,-36.8672)">
        <g transform="matrix(9.0743,0,0,9.0743,361.162,291)">
        </g>
        <text x="343px" y="291px" style="font-family:'ArialMT', 'Arial', sans-serif;font-size:9.074px;">30%</text>
    </g>
    <g transform="matrix(3.01518,0,0,3.01518,-396.475,-327.365)">
        <g transform="matrix(9.0743,0,0,9.0743,241.071,372.5)">
        </g>
        <text x="176px" y="372.5px" style="font-family:'ArialMT', 'Arial', sans-serif;font-size:9.074px;">QA<tspan x="188.61px 191.131px " y="372.5px 372.5px "> F</tspan>ailed:  3/10</text>
    </g>
    <g transform="matrix(1,0,0,1,12.258,2.31976)">
        <text x="700.011px" y="409.975px" style="font-family:'ArialMT', 'Arial', sans-serif;font-size:42px;">The internal task tracking</text>
        <text x="700.011px" y="453.349px" style="font-family:'ArialMT', 'Arial', sans-serif;font-size:42px;">tool used by this development</text>
        <g transform="matrix(42,0,0,42,805.052,496.723)">
        </g>
        <text x="700.011px" y="496.723px" style="font-family:'ArialMT', 'Arial', sans-serif;font-size:42px;">team.</text>
    </g>
</svg>
