<?xml version="1.0" encoding="UTF-8" standalone="no"?>
<!DOCTYPE svg PUBLIC "-//W3C//DTD SVG 1.1//EN" "http://www.w3.org/Graphics/SVG/1.1/DTD/svg11.dtd">
<svg width="100%" height="100%" viewBox="0 0 1024 1024" version="1.1" xmlns="http://www.w3.org/2000/svg" xmlns:xlink="http://www.w3.org/1999/xlink" xml:space="preserve" xmlns:serif="http://www.serif.com/" style="fill-rule:evenodd;clip-rule:evenodd;stroke-linecap:round;">
    <g transform="matrix(2.15126,0,0,2.15126,-38.7227,-38.7227)">
        <path d="M494,56.117L494,455.883C494,476.92 476.92,494 455.883,494L56.117,494C35.08,494 18,476.92 18,455.883L18,56.117C18,35.08 35.08,18 56.117,18L455.883,18C476.92,18 494,35.08 494,56.117Z" style="fill:rgb(38,81,136);"/>
    </g>
    <g transform="matrix(2.15126,0,0,2.15126,-38.7227,-114.017)">
        <path d="M264,116.092L264,193.908C264,195.063 263.063,196 261.908,196L257.092,196C255.937,196 255,195.063 255,193.908L255,116.092C255,114.937 255.937,114 257.092,114L261.908,114C263.063,114 264,114.937 264,116.092Z" style="fill:rgb(255,122,31);"/>
    </g>
    <g transform="matrix(2.15126,0,0,2.15126,-38.7227,-114.017)">
        <path d="M263,118C289,121 304,133 320,147C304,155 289,163 263,166L263,118Z" style="fill:url(#_Linear1);fill-rule:nonzero;"/>
    </g>
    <g transform="matrix(2.15126,0,0,2.15126,-38.7227,3.22689)">
        <path d="M308,157.719L308,184.281C308,186.334 306.334,188 304.281,188L207.719,188C205.666,188 204,186.334 204,184.281L204,157.719C204,155.666 205.666,154 207.719,154L304.281,154C306.334,154 308,155.666 308,157.719Z" style="fill:url(#_Linear2);"/>
    </g>
    <g transform="matrix(2.15126,0,0,2.15126,-38.7227,3.22689)">
        <path d="M352,217.719L352,242.281C352,244.334 350.334,246 348.281,246L163.719,246C161.666,246 160,244.334 160,242.281L160,217.719C160,215.666 161.666,214 163.719,214L348.281,214C350.334,214 352,215.666 352,217.719Z" style="fill:url(#_Linear3);"/>
    </g>
    <g transform="matrix(2.15126,0,0,2.15126,-38.7227,3.22689)">
        <path d="M398,277.719L398,304.281C398,306.334 396.334,308 394.281,308L117.719,308C115.666,308 114,306.334 114,304.281L114,277.719C114,275.666 115.666,274 117.719,274L394.281,274C396.334,274 398,275.666 398,277.719Z" style="fill:url(#_Linear4);"/>
    </g>
    <g transform="matrix(2.15126,0,0,2.15126,-38.7227,-38.7227)">
        <path d="M74,366C106,354 138,350 172,352C191,353 211,358 228,366C241,372 250,374 256,374C262,374 271,372 284,366C301,358 321,353 340,352C374,350 406,354 438,366L422,404C391,391 360,388 327,391C309,392 292,397 276,404C268,407 261,412 256,418C251,412 244,407 236,404C220,397 203,392 185,391C152,388 121,391 90,404L74,366Z" style="fill:white;fill-rule:nonzero;"/>
    </g>
    <g transform="matrix(2.15126,0,0,2.15126,-38.7227,-38.7227)">
        <path d="M88,402C118,390 149,387 181,390C201,392 220,398 237,408C245,412 251,417 256,423L256,374C248,374 240,372 228,366C211,358 191,353 172,352C138,350 106,354 74,366L88,402Z" style="fill:white;fill-rule:nonzero;"/>
    </g>
    <g transform="matrix(2.15126,0,0,2.15126,-38.7227,-38.7227)">
        <path d="M424,402C394,390 363,387 331,390C311,392 292,398 275,408C267,412 261,417 256,423L256,374C264,374 272,372 284,366C301,358 321,353 340,352C374,350 406,354 438,366L424,402Z" style="fill:rgb(245,247,251);fill-rule:nonzero;"/>
    </g>
    <g transform="matrix(2.15126,0,0,2.15126,-38.7227,-38.7227)">
        <path d="M100,396C130,387 160,386 190,389C211,391 230,398 246,409" style="fill:none;fill-rule:nonzero;stroke:rgb(214,221,231);stroke-width:6px;"/>
    </g>
    <g transform="matrix(2.15126,0,0,2.15126,-38.7227,-38.7227)">
        <path d="M412,396C382,387 352,386 322,389C301,391 282,398 266,409" style="fill:none;fill-rule:nonzero;stroke:rgb(214,221,231);stroke-width:6px;"/>
    </g>
    <g transform="matrix(2.15126,0,0,2.15126,-38.7227,-38.7227)">
        <path d="M74,366L90,404" style="fill:none;fill-rule:nonzero;stroke:rgb(220,227,235);stroke-opacity:0.6;stroke-width:5px;stroke-linecap:butt;"/>
    </g>
    <g transform="matrix(2.15126,0,0,2.15126,-38.7227,-38.7227)">
        <path d="M438,366L422,404" style="fill:none;fill-rule:nonzero;stroke:rgb(220,227,235);stroke-opacity:0.6;stroke-width:5px;stroke-linecap:butt;"/>
    </g>
    <defs>
        <linearGradient id="_Linear1" x1="0" y1="0" x2="1" y2="0" gradientUnits="userSpaceOnUse" gradientTransform="matrix(57,48,-48,57,263,118)"><stop offset="0" style="stop-color:rgb(255,138,28);stop-opacity:1"/><stop offset="1" style="stop-color:rgb(255,95,31);stop-opacity:1"/></linearGradient>
        <linearGradient id="_Linear2" x1="0" y1="0" x2="1" y2="0" gradientUnits="userSpaceOnUse" gradientTransform="matrix(104,0,0,104,204,154)"><stop offset="0" style="stop-color:rgb(255,201,26);stop-opacity:1"/><stop offset="1" style="stop-color:rgb(244,193,18);stop-opacity:1"/></linearGradient>
        <linearGradient id="_Linear3" x1="0" y1="0" x2="1" y2="0" gradientUnits="userSpaceOnUse" gradientTransform="matrix(192,0,0,192,160,214)"><stop offset="0" style="stop-color:rgb(143,210,47);stop-opacity:1"/><stop offset="1" style="stop-color:rgb(152,206,52);stop-opacity:1"/></linearGradient>
        <linearGradient id="_Linear4" x1="0" y1="0" x2="1" y2="0" gradientUnits="userSpaceOnUse" gradientTransform="matrix(284,0,0,284,114,274)"><stop offset="0" style="stop-color:rgb(23,202,215);stop-opacity:1"/><stop offset="1" style="stop-color:rgb(28,192,207);stop-opacity:1"/></linearGradient>
    </defs>
</svg>
