<?xml version="1.0" encoding="UTF-8" standalone="no"?>
<!DOCTYPE svg PUBLIC "-//W3C//DTD SVG 1.1//EN" "http://www.w3.org/Graphics/SVG/1.1/DTD/svg11.dtd">
<svg width="100%" height="100%" viewBox="0 0 1920 1080" version="1.1" xmlns="http://www.w3.org/2000/svg" xmlns:xlink="http://www.w3.org/1999/xlink" xml:space="preserve" xmlns:serif="http://www.serif.com/" style="fill-rule:evenodd;clip-rule:evenodd;stroke-linejoin:round;stroke-miterlimit:2;">
    <g id="Logo" transform="matrix(1.96272,0,0,1.96272,-612.922,-470.553)">
        <g id="Pride-Colors" serif:id="Pride Colors" transform="matrix(1.29579,0,0,0.334487,347.278,451.382)">
            <g transform="matrix(0.925065,0,0,0.925065,-23.2997,-61.23)">
                <path d="M434,863.75L434,889.25C434,896.287 432.525,902 430.709,902L386.291,902C384.475,902 383,896.287 383,889.25L383,863.75C383,856.713 384.475,851 386.291,851L430.709,851C432.525,851 434,856.713 434,863.75Z" style="fill:rgb(228,3,3);"/>
            </g>
            <g transform="matrix(0.925065,0,0,0.925065,38.6796,-61.23)">
                <path d="M434,863.75L434,889.25C434,896.287 432.525,902 430.709,902L386.291,902C384.475,902 383,896.287 383,889.25L383,863.75C383,856.713 384.475,851 386.291,851L430.709,851C432.525,851 434,856.713 434,863.75Z" style="fill:rgb(255,140,0);"/>
            </g>
            <g transform="matrix(0.925065,0,0,0.925065,97.8837,-61.23)">
                <path d="M434,863.75L434,889.25C434,896.287 432.525,902 430.709,902L386.291,902C384.475,902 383,896.287 383,889.25L383,863.75C383,856.713 384.475,851 386.291,851L430.709,851C432.525,851 434,856.713 434,863.75Z" style="fill:rgb(255,237,0);"/>
            </g>
            <g transform="matrix(0.925065,0,0,0.925065,159.863,-61.23)">
                <path d="M434,863.75L434,889.25C434,896.287 432.525,902 430.709,902L386.291,902C384.475,902 383,896.287 383,889.25L383,863.75C383,856.713 384.475,851 386.291,851L430.709,851C432.525,851 434,856.713 434,863.75Z" style="fill:rgb(0,128,38);"/>
            </g>
            <g transform="matrix(0.925065,0,0,0.925065,223.693,-61.23)">
                <path d="M434,863.75L434,889.25C434,896.287 432.525,902 430.709,902L386.291,902C384.475,902 383,896.287 383,889.25L383,863.75C383,856.713 384.475,851 386.291,851L430.709,851C432.525,851 434,856.713 434,863.75Z" style="fill:rgb(0,77,255);"/>
            </g>
            <g transform="matrix(0.925065,0,0,0.925065,287.522,-61.23)">
                <path d="M434,863.75L434,889.25C434,896.287 432.525,902 430.709,902L386.291,902C384.475,902 383,896.287 383,889.25L383,863.75C383,856.713 384.475,851 386.291,851L430.709,851C432.525,851 434,856.713 434,863.75Z" style="fill:rgb(117,7,135);"/>
            </g>
        </g>
        <g transform="matrix(1,0,0,1,-180.249,-9)">
            <g transform="matrix(13.9605,0,0,13.9605,996.8,679)">
            </g>
            <text x="958px" y="679px" style="font-family:'ArialMT', 'Arial', sans-serif;font-size:13.96px;fill:rgb(115,115,115);">by Sin</text>
        </g>
        <g transform="matrix(1.64547,0,0,1.64547,-634.751,-620.338)">
            <g transform="matrix(30,0,0,30,1141.07,773)">
            </g>
            <text x="857.186px" y="773px" style="font-family:'ArialNarrow-Bold', 'Arial', sans-serif;font-weight:700;font-stretch:condensed;font-size:30px;fill:rgb(77,77,77);">Projet Management T<tspan x="1104.17px 1119.2px " y="773px 773px ">oo</tspan>l</text>
        </g>
        <g id="PMT" transform="matrix(1,0,0,1,0,20)">
            <g transform="matrix(1.6408,0,0,1.6408,-627,21.9873)">
                <g transform="matrix(140,0,0,140,938.379,339)">
                </g>
                <text x="845px" y="339px" style="font-family:'Arial-BoldMT', 'Arial', sans-serif;font-weight:700;font-size:140px;fill:rgb(66,133,244);">P</text>
            </g>
            <g transform="matrix(1.6408,0,0,1.6408,-473,21.9873)">
                <g transform="matrix(140,0,0,140,961.621,339)">
                </g>
                <text x="845px" y="339px" style="font-family:'Arial-BoldMT', 'Arial', sans-serif;font-weight:700;font-size:140px;fill:rgb(234,67,53);">M</text>
            </g>
            <g transform="matrix(1.6408,0,0,1.6408,-282,21.9873)">
                <g transform="matrix(140,0,0,140,930.518,339)">
                </g>
                <text x="845px" y="339px" style="font-family:'Arial-BoldMT', 'Arial', sans-serif;font-weight:700;font-size:140px;fill:rgb(251,188,5);">T</text>
            </g>
        </g>
        <g id="Growth">
            <g>
                <g transform="matrix(0.666667,0,0,0.101449,-146.513,645.565)">
                    <path d="M805,549L805,603C805,626.18 802.136,645 798.609,645L724.391,645C720.864,645 718,626.18 718,603L718,549C718,525.82 720.864,507 724.391,507L798.609,507C802.136,507 805,525.82 805,549Z" style="fill:rgb(38,134,254);"/>
                </g>
                <g transform="matrix(0.769247,0,0,0.60615,14.454,374.516)">
                    <circle cx="450.5" cy="490.5" r="37.5" style="fill:rgb(38,134,254);"/>
                </g>
            </g>
            <g transform="matrix(1,0,0,1,-1,0)">
                <g transform="matrix(1,0,0,0.666667,-314,281)">
                    <path d="M805,546.717L805,605.283C805,627.203 793.135,645 778.522,645L744.478,645C729.865,645 718,627.203 718,605.283L718,546.717C718,524.797 729.865,507 744.478,507L778.522,507C793.135,507 805,524.797 805,546.717Z" style="fill:rgb(38,134,254);"/>
                </g>
                <g transform="matrix(1.06258,0,0,0.83729,-32.6926,166.809)">
                    <circle cx="450.5" cy="490.5" r="37.5" style="fill:rgb(38,134,254);"/>
                </g>
            </g>
            <g transform="matrix(1,0,0,1,-2,0)">
                <g transform="matrix(1,0,0,1.23913,-212.5,-88.2391)">
                    <path d="M805,528.368L805,623.632C805,635.425 793.135,645 778.522,645L744.478,645C729.865,645 718,635.425 718,623.632L718,528.368C718,516.575 729.865,507 744.478,507L778.522,507C793.135,507 805,516.575 805,528.368Z" style="fill:rgb(38,134,254);"/>
                </g>
                <g transform="matrix(1,0,0,1,98.5,-5)">
                    <circle cx="450.5" cy="490.5" r="37.5" style="fill:rgb(38,134,254);"/>
                </g>
            </g>
            <g transform="matrix(1,0,0,1,-2,0)">
                <g transform="matrix(1,0,0,1.23913,-212.5,-88.2391)">
                    <path d="M805,528.368L805,623.632C805,635.425 793.135,645 778.522,645L744.478,645C729.865,645 718,635.425 718,623.632L718,528.368C718,516.575 729.865,507 744.478,507L778.522,507C793.135,507 805,516.575 805,528.368Z" style="fill:rgb(38,134,254);"/>
                </g>
                <g transform="matrix(1,0,0,1,98.5,-5)">
                    <circle cx="450.5" cy="490.5" r="37.5" style="fill:rgb(38,134,254);"/>
                </g>
            </g>
            <g>
                <g transform="matrix(1,0,0,2.07971,-112.5,-630.413)">
                    <path d="M805,521.854L805,630.146C805,638.344 791.158,645 774.109,645L748.891,645C731.842,645 718,638.344 718,630.146L718,521.854C718,513.656 731.842,507 748.891,507L774.109,507C791.158,507 805,513.656 805,521.854Z" style="fill:rgb(0,98,254);"/>
                </g>
                <g transform="matrix(1,0,0,1,-0.5,0)">
                    <circle cx="650.5" cy="361.25" r="42.5" style="fill:rgb(0,98,254);"/>
                </g>
            </g>
        </g>
    </g>
</svg>
