<svg xmlns="http://www.w3.org/2000/svg" viewBox="0 0 720 180">
  <rect width="720" height="180" rx="24" fill="#fff4e8"/>
  <circle cx="50" cy="42" r="18" fill="#397a9f" opacity=".18"/>
  <circle cx="670" cy="138" r="28" fill="#e1a14a" opacity=".2"/>
  <rect x="42" y="136" width="96" height="8" rx="4" fill="#e1a14a" opacity=".28"/>
  <rect x="582" y="34" width="96" height="8" rx="4" fill="#e1a14a" opacity=".28"/>
  <g fill="none" stroke="#5a4434" stroke-width="7" stroke-linecap="round" stroke-linejoin="round">
    <rect x="190" y="22" width="340" height="136" rx="12" fill="#fff"/>
    <line x1="190" y1="52" x2="530" y2="52"/>
    <line x1="260" y1="52" x2="260" y2="158"/>
    <rect x="207" y="32" width="16" height="10" rx="2" fill="#397a9f" stroke="none"/>
    <rect x="230" y="32" width="16" height="10" rx="2" fill="#e1a14a" stroke="none"/>
    <line x1="207" y1="72" x2="242" y2="72" stroke-width="5"/>
    <line x1="207" y1="91" x2="242" y2="91" stroke-width="5"/>
    <line x1="207" y1="110" x2="236" y2="110" stroke-width="5"/>
    <rect x="284" y="68" width="72" height="38" rx="5" fill="#397a9f" fill-opacity=".18"/>
    <line x1="284" y1="82" x2="356" y2="82" stroke-width="4"/>
    <rect x="424" y="65" width="78" height="42" rx="5" fill="#e1a14a" fill-opacity=".2"/>
    <line x1="424" y1="80" x2="502" y2="80" stroke-width="4"/>
    <rect x="354" y="124" width="76" height="26" rx="5" fill="#397a9f" fill-opacity=".12"/>
    <line x1="356" y1="88" x2="424" y2="88" stroke="#397a9f" stroke-width="5"/>
    <line x1="463" y1="107" x2="463" y2="137" stroke="#397a9f" stroke-width="5"/>
    <line x1="430" y1="137" x2="463" y2="137" stroke="#397a9f" stroke-width="5"/>
  </g>
</svg>
