<svg xmlns="http://www.w3.org/2000/svg" viewBox="0 0 720 180">
  <rect width="720" height="180" rx="24" fill="#edf8f8"/>
  <circle cx="40" cy="42" r="18" fill="#d87937" opacity=".18"/>
  <circle cx="680" cy="138" r="28" fill="#58a3a9" opacity=".2"/>
  <path d="M42 142h96M582 38h96" stroke="#58a3a9" stroke-width="8" stroke-linecap="round" opacity=".28"/>
  <g fill="none" stroke="#28555d" stroke-width="7" stroke-linecap="round" stroke-linejoin="round">
    <rect x="238" y="30" width="244" height="112" rx="14" fill="#fff"/>
    <path d="M238 60h244M286 142h148M326 160h68" stroke="#d87937" stroke-width="5"/>
    <rect x="262" y="78" width="66" height="36" rx="7" fill="#d87937" stroke="none" opacity=".16"/>
    <rect x="348" y="78" width="94" height="36" rx="7" fill="#58a3a9" stroke="none" opacity=".18"/>
    <path d="M276 103h38M363 101l18-16 20 14 27-22" stroke="#d87937" stroke-width="5"/>
    <circle cx="294" cy="43" r="5" fill="#d87937" stroke="none"/>
    <circle cx="314" cy="43" r="5" fill="#58a3a9" stroke="none"/>
    <circle cx="334" cy="43" r="5" fill="#d87937" stroke="none" opacity=".55"/>
    <circle cx="200" cy="102" r="18" fill="#fff"/>
    <circle cx="520" cy="102" r="18" fill="#fff"/>
    <circle cx="360" cy="142" r="16" fill="#fff"/>
    <path d="M168 156c6-25 16-37 32-37s26 12 32 37M488 156c6-25 16-37 32-37s26 12 32 37M330 168c6-18 16-27 30-27s24 9 30 27" stroke-width="5"/>
    <path d="M218 100h20M482 100h20M360 114v12" stroke="#58a3a9" stroke-width="5"/>
    <path d="M176 74c7 0 14-7 14-18 9 7 14 15 14 24M536 74c-7 0-14-7-14-18-9 7-14 15-14 24" stroke="#d87937" stroke-width="4"/>
  </g>
</svg>
