<svg xmlns="http://www.w3.org/2000/svg" viewBox="0 0 720 180">
  <rect width="720" height="180" rx="24" fill="#edf8f8"/>
  <circle cx="40" cy="42" r="18" fill="#d87937" opacity=".18"/>
  <circle cx="680" cy="138" r="28" fill="#58a3a9" opacity=".2"/>
  <path d="M42 142h96M582 38h96" stroke="#58a3a9" stroke-width="8" stroke-linecap="round" opacity=".28"/>
  <g fill="none" stroke="#28555d" stroke-width="7" stroke-linecap="round" stroke-linejoin="round">
    <rect x="282" y="34" width="156" height="90" rx="12" fill="#fff"/>
    <path d="M282 60h156M332 124h56M346 146h28" stroke="#d87937" stroke-width="5"/>
    <path d="M314 83h34l-12 20h38l-14-20h46" stroke-width="5"/>
    <circle cx="315" cy="83" r="7" fill="#58a3a9" stroke="none"/>
    <circle cx="360" cy="103" r="7" fill="#d87937" stroke="none"/>
    <circle cx="406" cy="83" r="7" fill="#58a3a9" stroke="none"/>
    <circle cx="232" cy="92" r="20" fill="#fff"/>
    <circle cx="488" cy="92" r="20" fill="#fff"/>
    <circle cx="360" cy="150" r="18" fill="#fff"/>
    <path d="M198 150c5-27 16-40 34-40s29 13 34 40M454 150c5-27 16-40 34-40s29 13 34 40M324 169c6-20 18-30 36-30s30 10 36 30" stroke-width="5"/>
    <path d="M252 92h30M438 92h30M360 124v14" stroke="#58a3a9" stroke-width="5"/>
  </g>
</svg>
