<svg xmlns="http://www.w3.org/2000/svg" viewBox="0 0 720 180">
  <rect width="720" height="180" rx="24" fill="#fff4e8"/>
  <circle cx="50" cy="42" r="18" fill="#397a9f" opacity=".18"/>
  <circle cx="670" cy="138" r="28" fill="#e1a14a" opacity=".2"/>
  <path d="M42 142h96M582 38h96" stroke="#e1a14a" stroke-width="8" stroke-linecap="round" opacity=".28"/>
  <g fill="none" stroke="#5a4434" stroke-width="7" stroke-linecap="round" stroke-linejoin="round">
    <rect x="220" y="24" width="280" height="136" rx="12" fill="#fff"/>
    <path d="M220 55h280M300 55v105"/>
    <circle cx="241" cy="40" r="5" fill="#397a9f" stroke="none"/>
    <circle cx="258" cy="40" r="5" fill="#e1a14a" stroke="none"/>
    <path d="M239 78h42M239 98h32M239 118h42M239 138h26" stroke-width="5"/>
    <rect x="326" y="75" width="58" height="34" rx="6" fill="#397a9f" stroke="none" opacity=".22"/>
    <rect x="417" y="108" width="58" height="34" rx="6" fill="#e1a14a" stroke="none" opacity=".28"/>
    <path d="M384 92h49v16"/>
    <path d="m425 100 8 8-8 8" stroke="#397a9f"/>
  </g>
</svg>
