<svg xmlns="http://www.w3.org/2000/svg" viewBox="0 0 720 180">
  <rect width="720" height="180" rx="24" fill="#f6efff"/>
  <circle cx="67" cy="42" r="18" fill="#d26b5f" opacity=".18"/>
  <circle cx="653" cy="138" r="28" fill="#8b6fbd" opacity=".2"/>
  <path d="M42 142h96M582 38h96" stroke="#8b6fbd" stroke-width="8" stroke-linecap="round" opacity=".28"/>
  <g fill="none" stroke="#4b3d66" stroke-width="7" stroke-linecap="round" stroke-linejoin="round">
    <rect x="230" y="34" width="260" height="96" rx="12" fill="#fff"/>
    <path d="M230 64h260M314 64v66M406 64v66"/>
    <rect x="251" y="82" width="42" height="25" rx="5" fill="#d26b5f" stroke="none" opacity=".8"/>
    <rect x="333" y="82" width="54" height="25" rx="5" fill="#8b6fbd" stroke="none" opacity=".75"/>
    <rect x="425" y="82" width="44" height="25" rx="5" fill="#d26b5f" stroke="none" opacity=".5"/>
    <circle cx="300" cy="144" r="14" fill="#fff"/>
    <circle cx="360" cy="144" r="14" fill="#fff"/>
    <circle cx="420" cy="144" r="14" fill="#fff"/>
    <path d="M276 164c5-14 13-20 24-20s19 6 24 20M336 164c5-14 13-20 24-20s19 6 24 20M396 164c5-14 13-20 24-20s19 6 24 20" stroke-width="5"/>
    <path d="M285 43h26M333 43h54M409 43h26" stroke="#d26b5f" stroke-width="5"/>
  </g>
</svg>
